<svg width="54" height="54" viewBox="0 0 54 54" fill="none" xmlns="http://www.w3.org/2000/svg">
<path d="M54 27C54 41.9117 41.9117 54 27 54C12.0883 54 0 41.9117 0 27C0 12.0883 12.0883 0 27 0C41.9117 0 54 12.0883 54 27Z" fill="#D9D9D9"/>
<path d="M24.3198 33.5677H31.1398M27.7298 13.1353V14.5947M37.0177 16.9824L35.9857 18.0144M40.865 26.2703H39.4055M16.0542 26.2703H14.5947M19.4738 18.0144L18.4418 16.9824M22.5698 31.4304C19.72 28.5806 19.72 23.9602 22.5698 21.1105C25.4196 18.2607 30.04 18.2607 32.8898 21.1105C35.7395 23.9602 35.7395 28.5806 32.8898 31.4304L32.0913 32.2289C31.1676 33.1525 30.6487 34.4053 30.6487 35.7116V36.4866C30.6487 38.0987 29.3419 39.4055 27.7298 39.4055C26.1177 39.4055 24.8109 38.0987 24.8109 36.4866V35.7116C24.8109 34.4053 24.292 33.1525 23.3683 32.2289L22.5698 31.4304Z" stroke="#545F71" stroke-width="2" stroke-linecap="round" stroke-linejoin="round"/>
</svg>
